<?xml version="1.0" encoding="UTF-8"?>
<!DOCTYPE svg PUBLIC "-//W3C//DTD SVG 1.1//EN" "http://www.w3.org/Graphics/SVG/1.1/DTD/svg11.dtd">
<!-- Creator: CorelDRAW -->
<svg xmlns="http://www.w3.org/2000/svg" xml:space="preserve" width="2048px" height="2048px" style="shape-rendering:geometricPrecision; text-rendering:geometricPrecision; image-rendering:optimizeQuality; fill-rule:evenodd; clip-rule:evenodd"
viewBox="0 0 2048 2048"
 xmlns:xlink="http://www.w3.org/1999/xlink">
 <defs>
  <style type="text/css">
   <![CDATA[
    .fil0 {fill:none}
    .fil7 {fill:#1DE9B6}
    .fil11 {fill:#232430}
    .fil9 {fill:#2F303D}
    .fil3 {fill:#424242}
    .fil8 {fill:#434452}
    .fil5 {fill:#66BEE3}
    .fil4 {fill:#6BC4EA}
    .fil2 {fill:#BDBDBD}
    .fil1 {fill:#C1C1C1}
    .fil6 {fill:#D6D6D6}
    .fil10 {fill:#FBC02D}
   ]]>
  </style>
 </defs>
 <g id="Layer_x0020_1">
  <metadata id="CorelCorpID_0Corel-Layer"/>
  <polygon class="fil0" points="255.999,256.001 1792,256.001 1792,1792 255.999,1792 "/>
  <rect class="fil0" width="2048" height="2048"/>
  <rect class="fil0" x="255.999" y="255.999" width="1536" height="1536"/>
  <rect class="fil0" width="2048" height="2048"/>
  <g id="_520282616">
   <g>
    <rect id="_520298480" class="fil1" x="698.238" y="1326.43" width="201.378" height="117.389"/>
    <path id="_520285952" class="fil2" d="M285.347 592.74l1027.16 0c16.1421,0 29.3469,13.8354 29.3469,30.7441l0 672.197c0,16.9075 -13.2071,30.7441 -29.3469,30.7441l-1027.16 0c-16.1398,0 -29.3469,-13.8343 -29.3469,-30.7441l0 -672.197c0,-16.9099 13.2047,-30.7441 29.3469,-30.7441z"/>
    <g>
     <path id="_520293152" class="fil3" d="M285.347 592.74l1027.16 0c16.1421,0 29.3469,13.8354 29.3469,30.7441l0 584.155c0,16.9087 -13.2059,30.7441 -29.3469,30.7441l-1027.16 0c-16.141,0 -29.3469,-13.8343 -29.3469,-30.7441l0 -584.155c0,-16.9099 13.2047,-30.7441 29.3469,-30.7441z"/>
     <g>
      <polygon id="_520305992" class="fil4" points="436.976,1201.7 437.11,1201.7 1305.17,1201.7 1305.17,629.423 868.269,629.423 894.76,629.423 "/>
      <polygon id="_520300496" class="fil5" points="292.684,629.423 292.684,1201.7 461.248,1201.7 960.08,629.423 "/>
     </g>
    </g>
    <rect id="_520280840" class="fil6" x="666.863" y="1442.64" width="264.128" height="12.6179"/>
    <rect id="_520298504" class="fil3" x="1242.66" y="1283.5" width="25.4965" height="6.71063"/>
    <rect id="_520307288" class="fil7" x="1291.23" y="1283.5" width="25.4965" height="6.71063"/>
   </g>
   <g>
    <path id="_520294280" class="fil8" d="M1468.38 555.439l273.207 0c13.8815,0 26.4874,6.94843 35.6162,18.1417 9.12993,11.1921 14.7969,26.6492 14.7969,43.6689l0 813.501c0,17.0197 -5.66693,32.4768 -14.7969,43.6689 -9.12875,11.1933 -21.7347,18.1417 -35.6162,18.1417 -215.563,0 -57.6993,0 -273.207,0 -13.8815,0 -26.4874,-6.94843 -35.6162,-18.1417 -9.12993,-11.1921 -14.7969,-26.6492 -14.7969,-43.6689l0 -813.501c0,-17.0197 5.66693,-32.4768 14.7969,-43.6689 9.12875,-11.1933 21.7347,-18.1417 35.6162,-18.1417z"/>
    <g>
     <polygon id="_520275704" class="fil9" points="1654.06,1492.56 1654.06,1173.54 1616.05,1173.54 1616.05,1492.56 "/>
     <polygon id="_520281872" class="fil9" points="1593.92,1492.56 1593.92,1173.54 1555.91,1173.54 1555.91,1492.56 "/>
    </g>
    <path id="_520303952" class="fil10" d="M1604.98 1064.09c10.8732,0 19.689,8.88308 19.689,19.8402 0,10.9583 -8.81575,19.8402 -19.689,19.8402 -10.8744,0 -19.6902,-8.8819 -19.6902,-19.8402 0,-10.9571 8.81575,-19.8402 19.6902,-19.8402z"/>
    <polygon id="_520304168" class="fil9" points="1421.7,633.532 1788.27,633.532 1788.27,751.504 1421.7,751.504 "/>
    <polygon id="_520294688" class="fil11" points="1493.52,667.415 1716.45,667.415 1716.45,717.619 1493.52,717.619 "/>
    <path id="_520298984" class="fil10" d="M1604.98 1123.92c5.67402,0 10.2744,4.63583 10.2744,10.3536 0,5.7189 -4.6004,10.3547 -10.2744,10.3547 -5.6752,0 -10.2756,-4.63583 -10.2756,-10.3547 0,-5.71772 4.6004,-10.3536 10.2756,-10.3536z"/>
   </g>
  </g>
 </g>
</svg>
